<svg width="250" height="250" viewBox="0 0 250 250" fill="none" xmlns="http://www.w3.org/2000/svg">
<rect width="250" height="250" fill="black"/>
<path d="M24.7299 22.4H73.1139C88.8579 22.4 100.666 26.624 108.538 35.072C116.41 43.52 120.346 55.904 120.346 72.224V174.176C120.346 190.496 116.41 202.88 108.538 211.328C100.666 219.776 88.8579 224 73.1139 224H24.7299V22.4ZM72.5379 195.2C77.7219 195.2 81.6579 193.664 84.3459 190.592C87.2259 187.52 88.6659 182.528 88.6659 175.616V70.784C88.6659 63.872 87.2259 58.88 84.3459 55.808C81.6579 52.736 77.7219 51.2 72.5379 51.2H56.4099V195.2H72.5379Z" fill="#6889FF"/>
<path d="M182.914 226.88C167.554 226.88 155.938 222.56 148.066 213.92C140.194 205.088 136.258 192.512 136.258 176.192V164.672H166.21V178.496C166.21 191.552 171.682 198.08 182.626 198.08C188.002 198.08 192.034 196.544 194.722 193.472C197.602 190.208 199.042 185.024 199.042 177.92C199.042 169.472 197.122 162.08 193.282 155.744C189.442 149.216 182.338 141.44 171.97 132.416C158.914 120.896 149.794 110.528 144.61 101.312C139.426 91.904 136.834 81.344 136.834 69.632C136.834 53.696 140.866 41.408 148.93 32.768C156.994 23.936 168.706 19.52 184.066 19.52C199.234 19.52 210.658 23.936 218.338 32.768C226.21 41.408 230.146 53.888 230.146 70.208V78.56H200.194V68.192C200.194 61.28 198.85 56.288 196.162 53.216C193.474 49.952 189.538 48.32 184.354 48.32C173.794 48.32 168.514 54.752 168.514 67.616C168.514 74.912 170.434 81.728 174.274 88.064C178.306 94.4 185.506 102.08 195.874 111.104C209.122 122.624 218.242 133.088 223.234 142.496C228.226 151.904 230.722 162.944 230.722 175.616C230.722 192.128 226.594 204.8 218.338 213.632C210.274 222.464 198.466 226.88 182.914 226.88Z" fill="white"/>
</svg>
